<svg xmlns="http://www.w3.org/2000/svg" viewBox="0 0 380 255" role="img" aria-label="Paper preview">
  <rect width="380" height="255" fill="#fbfbfb"/>
  <rect x="16" y="14" width="348" height="227" fill="#ffffff" stroke="#dedede"/>
  <text x="34" y="43" font-family="Georgia, serif" font-size="15" fill="#262626">Evaluating GNN explanations</text>
  <line x1="34" y1="56" x2="196" y2="56" stroke="#c6c6c6"/>
  <path d="M75 108L128 83L173 122L132 168L73 153Z" fill="none" stroke="#969696" stroke-width="2"/>
  <path d="M128 83l5 85M75 108l98 14M73 153l55-70" stroke="#c8c8c8" stroke-width="1.5"/>
  <circle cx="75" cy="108" r="7" fill="#6f6f6f"/>
  <circle cx="128" cy="83" r="7" fill="#a2a2a2"/>
  <circle cx="173" cy="122" r="7" fill="#858585"/>
  <circle cx="132" cy="168" r="7" fill="#b5b5b5"/>
  <circle cx="73" cy="153" r="7" fill="#929292"/>
  <path d="M224 99h100M224 119h82M224 139h94M224 159h67" stroke="#ababab" stroke-width="4" stroke-linecap="round"/>
  <text x="34" y="218" font-family="Helvetica, Arial, sans-serif" font-size="11" fill="#777">neuro-symbolic evaluation · 2021</text>
</svg>
