<svg xmlns="http://www.w3.org/2000/svg" viewBox="0 0 380 255" role="img" aria-label="Paper preview">
  <rect width="380" height="255" fill="#fbfbfb"/>
  <rect x="16" y="14" width="348" height="227" fill="#ffffff" stroke="#dedede"/>
  <text x="34" y="43" font-family="Georgia, serif" font-size="15" fill="#262626">Multilingual speech models</text>
  <line x1="34" y1="56" x2="188" y2="56" stroke="#c6c6c6"/>
  <path d="M40 120 C54 74,70 168,84 120 S112 71,126 120 S154 167,168 120 S196 74,210 120 S238 168,252 120 S280 71,294 120 S322 167,336 120" fill="none" stroke="#737373" stroke-width="2"/>
  <path d="M40 158h296" stroke="#dedede"/>
  <rect x="57" y="177" width="21" height="24" fill="#bcbcbc"/>
  <rect x="96" y="168" width="21" height="33" fill="#969696"/>
  <rect x="135" y="181" width="21" height="20" fill="#d3d3d3"/>
  <rect x="174" y="160" width="21" height="41" fill="#7d7d7d"/>
  <rect x="213" y="174" width="21" height="27" fill="#b1b1b1"/>
  <rect x="252" y="166" width="21" height="35" fill="#8e8e8e"/>
  <rect x="291" y="178" width="21" height="23" fill="#c9c9c9"/>
  <text x="34" y="218" font-family="Helvetica, Arial, sans-serif" font-size="11" fill="#777">benchmarking · 2024</text>
</svg>
